<svg xmlns="http://www.w3.org/2000/svg" xmlns:xlink="http://www.w3.org/1999/xlink" width="1090" height="472.49"><rect width="1090" height="472.49" rx="5" ry="5" class="a"/><svg y="0%" x="0%"><circle cx="20" cy="20" r="6" fill="#ff5f58"/><circle cx="40" cy="20" r="6" fill="#ffbd2e"/><circle cx="60" cy="20" r="6" fill="#18c132"/></svg><svg height="412.49" viewBox="0 0 105 41.249" width="1050" x="15" xmlns="http://www.w3.org/2000/svg" xmlns:xlink="http://www.w3.org/1999/xlink" y="50"><style>@keyframes l{0%{transform:translateX(0)}.2%{transform:translateX(-420px)}7.5%{transform:translateX(-735px)}14.9%{transform:translateX(-1260px)}22.3%{transform:translateX(-1365px)}24.5%{transform:translateX(-1575px)}26.7%{transform:translateX(-1995px)}to{transform:translateX(-2100px)}}.a{fill:#282d35}.f,.g,.i{fill:#66c2cd;white-space:pre}.g,.i{fill:#b9c0cb}.i{fill:#d290e3}</style><g font-family="Monaco,Consolas,Menlo,'Bitstream Vera Sans Mono','Powerline Symbols',monospace" font-size="1.67"><defs><symbol id="7"><text y="1.67" class="f">#</text><text x="2.004" y="1.67" class="f">Or</text><text x="5.01" y="1.67" class="f">use</text><text x="9.018" y="1.67" class="f">&apos;curl&apos;:</text></symbol><symbol id="1"><text y="1.67" class="f">#</text><text x="2.004" y="1.67" class="f">If</text><text x="5.01" y="1.67" class="f">you</text><text x="9.018" y="1.67" class="f">want</text><text x="14.028" y="1.67" class="f">to</text><text x="17.034" y="1.67" class="f">convert</text><text x="25.05" y="1.67" class="f">this</text><text x="30.06" y="1.67" class="f">asciinema:</text></symbol><symbol id="3"><text y="1.67" class="f">#</text><text x="2.004" y="1.67" class="f">Get</text><text x="6.012" y="1.67" class="f">the</text><text x="10.02" y="1.67" class="f">Cast</text><text x="15.03" y="1.67" class="f">ID</text><text x="18.036" y="1.67" class="f">from</text><text x="23.046" y="1.67" class="f">URL:</text></symbol><symbol id="4"><text x="2.004" y="1.67" style="white-space:pre" fill="#a8cc8c">sShTBvpzo9yohonEGsEKr6HC1</text></symbol><symbol id="5"><text y="1.67" class="f">#</text><text x="2.004" y="1.67" class="f">Now</text><text x="6.012" y="1.67" class="f">download</text><text x="15.03" y="1.67" class="f">it</text><text x="18.036" y="1.67" class="f">from</text><text x="23.046" y="1.67" class="f">this</text><text x="28.056" y="1.67" class="f">URL:</text></symbol><symbol id="6"><text x="2.004" y="1.67" class="g">https://asciinema2svg.thenets.org/download/sShTBvpzo9yohonEGsEKr6HC1.svg</text></symbol><symbol id="2"><text x="2.004" y="1.67" class="g">https://asciinema.org/a/sShTBvpzo9yohonEGsEKr6HC1</text></symbol><symbol id="8"><text y="1.67" class="g">$</text><text x="2.004" y="1.67" class="g">curl</text><text x="7.014" y="1.67" class="g">-Lqo</text><text x="12.024" y="1.67" class="i">./my.svg</text><text x="21.042" y="1.67" class="g">https://asciinema2svg.thenets.org/download/sShTBvpzo9yohonEGsEKr6HC1.svg</text></symbol><symbol id="9"><text y="1.67" class="g">$</text><text x="2.004" y="1.67" class="g">ls</text><text x="5.01" y="1.67" class="g">-lh</text><text x="9.018" y="1.67" class="i">./my.svg</text></symbol><symbol id="10"><text y="1.67" class="g">-rw-rw-r--</text><text x="11.022" y="1.67" class="g">1</text><text x="13.026" y="1.67" class="g">luiz</text><text x="18.036" y="1.67" class="g">luiz</text><text x="23.046" y="1.67" class="g">265K</text><text x="28.056" y="1.67" class="i">my.svg</text></symbol><symbol id="11"><text y="1.67" class="f">#</text><text x="2.004" y="1.67" class="f">Enjoy</text><text x="8.016" y="1.67" class="f">it</text><text x="11.022" y="1.67" class="f">:)</text></symbol><symbol id="a"><path fill="transparent" d="M0 0h105v19H0z"/></symbol><symbol id="b"><path fill="#6f7683" d="M0 0h1.102v2.171H0z"/></symbol></defs><path class="a" d="M0 0h105v41.249H0z"/><g style="animation-duration:13.646814s;animation-iteration-count:infinite;animation-name:l;animation-timing-function:steps(1,end)"><svg width="2205"><svg><use xlink:href="#a"/><use xlink:href="#b" x="-.004"/></svg><svg x="105"><use xlink:href="#a"/><use xlink:href="#b" x="39.996"/><use xlink:href="#1"/></svg><svg x="210"><use xlink:href="#a"/><use xlink:href="#b" x="-.004" y="2.146"/><use xlink:href="#1"/></svg><svg x="315"><use xlink:href="#a"/><use xlink:href="#b" x="50.996" y="2.146"/><use xlink:href="#1"/><use xlink:href="#2" y="2.171"/></svg><svg x="420"><use xlink:href="#a"/><use xlink:href="#b" x="-.004" y="4.317"/><use xlink:href="#1"/><use xlink:href="#2" y="2.171"/></svg><svg x="525"><use xlink:href="#a"/><use xlink:href="#b" x="-.004" y="6.488"/><use xlink:href="#1"/><use xlink:href="#2" y="2.171"/></svg><svg x="630"><use xlink:href="#a"/><use xlink:href="#b" x="26.996" y="6.488"/><use xlink:href="#1"/><use xlink:href="#2" y="2.171"/><use xlink:href="#3" y="6.513"/></svg><svg x="735"><use xlink:href="#a"/><use xlink:href="#b" x="-.004" y="13.001"/><use xlink:href="#1"/><use xlink:href="#2" y="2.171"/><use xlink:href="#3" y="6.513"/><use xlink:href="#4" y="8.684"/></svg><svg x="840"><use xlink:href="#a"/><use xlink:href="#b" x="31.996" y="13.001"/><use xlink:href="#1"/><use xlink:href="#2" y="2.171"/><use xlink:href="#3" y="6.513"/><use xlink:href="#4" y="8.684"/><use xlink:href="#5" y="13.026"/></svg><svg x="945"><use xlink:href="#a"/><use xlink:href="#b" x="-.004" y="15.172"/><use xlink:href="#1"/><use xlink:href="#2" y="2.171"/><use xlink:href="#3" y="6.513"/><use xlink:href="#4" y="8.684"/><use xlink:href="#5" y="13.026"/></svg><svg x="1050"><use xlink:href="#a"/><use xlink:href="#b" x="73.996" y="15.172"/><use xlink:href="#1"/><use xlink:href="#2" y="2.171"/><use xlink:href="#3" y="6.513"/><use xlink:href="#4" y="8.684"/><use xlink:href="#5" y="13.026"/><use xlink:href="#6" y="15.197"/></svg><svg x="1155"><use xlink:href="#a"/><use xlink:href="#b" x="-.004" y="17.343"/><use xlink:href="#1"/><use xlink:href="#2" y="2.171"/><use xlink:href="#3" y="6.513"/><use xlink:href="#4" y="8.684"/><use xlink:href="#5" y="13.026"/><use xlink:href="#6" y="15.197"/></svg><svg x="1260"><use xlink:href="#a"/><use xlink:href="#b" x="-.004" y="19.514"/><use xlink:href="#1"/><use xlink:href="#2" y="2.171"/><use xlink:href="#3" y="6.513"/><use xlink:href="#4" y="8.684"/><use xlink:href="#5" y="13.026"/><use xlink:href="#6" y="15.197"/></svg><svg x="1365"><use xlink:href="#a"/><use xlink:href="#b" x="-.004" y="23.856"/><use xlink:href="#1"/><use xlink:href="#2" y="2.171"/><use xlink:href="#3" y="6.513"/><use xlink:href="#4" y="8.684"/><use xlink:href="#5" y="13.026"/><use xlink:href="#6" y="15.197"/><use xlink:href="#7" y="19.539"/><use xlink:href="#8" y="21.71"/></svg><svg x="1470"><use xlink:href="#a"/><use xlink:href="#b" x="16.996" y="23.856"/><use xlink:href="#1"/><use xlink:href="#2" y="2.171"/><use xlink:href="#3" y="6.513"/><use xlink:href="#4" y="8.684"/><use xlink:href="#5" y="13.026"/><use xlink:href="#6" y="15.197"/><use xlink:href="#7" y="19.539"/><use xlink:href="#8" y="21.71"/><use xlink:href="#9" y="23.881"/></svg><svg x="1575"><use xlink:href="#a"/><use xlink:href="#b" x="-.004" y="26.027"/><use xlink:href="#1"/><use xlink:href="#2" y="2.171"/><use xlink:href="#3" y="6.513"/><use xlink:href="#4" y="8.684"/><use xlink:href="#5" y="13.026"/><use xlink:href="#6" y="15.197"/><use xlink:href="#7" y="19.539"/><use xlink:href="#8" y="21.71"/><use xlink:href="#9" y="23.881"/></svg><svg x="1680"><use xlink:href="#a"/><use xlink:href="#b" x="33.996" y="26.027"/><use xlink:href="#1"/><use xlink:href="#2" y="2.171"/><use xlink:href="#3" y="6.513"/><use xlink:href="#4" y="8.684"/><use xlink:href="#5" y="13.026"/><use xlink:href="#6" y="15.197"/><use xlink:href="#7" y="19.539"/><use xlink:href="#8" y="21.71"/><use xlink:href="#9" y="23.881"/><use xlink:href="#10" y="26.052"/></svg><svg x="1785"><use xlink:href="#a"/><use xlink:href="#b" x="-.004" y="30.369"/><use xlink:href="#1"/><use xlink:href="#2" y="2.171"/><use xlink:href="#3" y="6.513"/><use xlink:href="#4" y="8.684"/><use xlink:href="#5" y="13.026"/><use xlink:href="#6" y="15.197"/><use xlink:href="#7" y="19.539"/><use xlink:href="#8" y="21.71"/><use xlink:href="#9" y="23.881"/><use xlink:href="#10" y="26.052"/></svg><svg x="1890"><use xlink:href="#a"/><use xlink:href="#b" x="12.996" y="30.369"/><use xlink:href="#1"/><use xlink:href="#2" y="2.171"/><use xlink:href="#3" y="6.513"/><use xlink:href="#4" y="8.684"/><use xlink:href="#5" y="13.026"/><use xlink:href="#6" y="15.197"/><use xlink:href="#7" y="19.539"/><use xlink:href="#8" y="21.71"/><use xlink:href="#9" y="23.881"/><use xlink:href="#10" y="26.052"/><use xlink:href="#11" y="30.394"/></svg><svg x="1995"><use xlink:href="#a"/><use xlink:href="#b" x="-.004" y="32.54"/><use xlink:href="#1"/><use xlink:href="#2" y="2.171"/><use xlink:href="#3" y="6.513"/><use xlink:href="#4" y="8.684"/><use xlink:href="#5" y="13.026"/><use xlink:href="#6" y="15.197"/><use xlink:href="#7" y="19.539"/><use xlink:href="#8" y="21.71"/><use xlink:href="#9" y="23.881"/><use xlink:href="#10" y="26.052"/><use xlink:href="#11" y="30.394"/></svg><svg x="2100"><use xlink:href="#a"/><use xlink:href="#b" x="-.004" y="34.711"/><use xlink:href="#1"/><use xlink:href="#2" y="2.171"/><use xlink:href="#3" y="6.513"/><use xlink:href="#4" y="8.684"/><use xlink:href="#5" y="13.026"/><use xlink:href="#6" y="15.197"/><use xlink:href="#7" y="19.539"/><use xlink:href="#8" y="21.71"/><use xlink:href="#9" y="23.881"/><use xlink:href="#10" y="26.052"/><use xlink:href="#11" y="30.394"/><text y="34.235" class="g">#</text><text x="2.004" y="34.235" class="g">Bye</text></svg></svg></g></g></svg></svg>